<svg id="Calque_1" data-name="Calque 1" xmlns="http://www.w3.org/2000/svg" viewBox="0 0 1920 320"><defs><style>.cls-1{fill:none;}.cls-2{clip-path:url(#clip-path);}.cls-3{opacity:0.05;}.cls-4{opacity:0.1;}.cls-5{fill:#030104;}</style><clipPath id="clip-path"><rect class="cls-1" width="1920" height="320"/></clipPath></defs><title>Plan de travail 1</title><g class="cls-2"><path class="cls-3" d="M403.14,31.78v-.24H401.9l0,10.08a49.55,49.55,0,0,0-9.51-6.25,92.39,92.39,0,0,0-26.47-8.46V22.11c4.48-4,8.5,1.84,11.47-3.93-7,.09-5.45-4.32-11.45-3.94V14H364.7l0,12.69q-3.35-.55-6.7-.93a147,147,0,0,0-37.59.45c-1.15.16-2.3.35-3.45.54l0-12.74h-1.24v.24c-6-.38-4.47,4-11.45,3.94,3,5.77,7-.07,11.47,3.93l0,4.84C305.38,28.77,295,31.81,286,37.26a46.41,46.41,0,0,0-6.28,4.51l0-10.24h-1.24v.24c-6-.38-4.47,4-11.45,3.94,3,5.77,7-.07,11.47,3.93v3.23c-4.38,4.12-7.77,9.39-7.49,15.58.32,7.16,4.36,12.73,9.55,17V85.68a22,22,0,0,1-4.4-5.13A17.61,17.61,0,0,1,274.89,78a14.53,14.53,0,0,1-.62-2.05c-.12-.57-.21-1-.24-1.33l-.06-.46,0,.47a11.19,11.19,0,0,0,0,1.37A15.07,15.07,0,0,0,275,81.13a20.84,20.84,0,0,0,1.75,3.37A26.2,26.2,0,0,0,279.52,88c.33.36.67.71,1,1.07v9.3a22,22,0,0,1-4.4-5.13,17.61,17.61,0,0,1-1.26-2.56,14.51,14.51,0,0,1-.62-2.05c-.12-.57-.21-1-.24-1.33l-.06-.46,0,.47a11.19,11.19,0,0,0,0,1.37A15.06,15.06,0,0,0,275,93.84a20.87,20.87,0,0,0,1.75,3.37,26.2,26.2,0,0,0,2.73,3.52c.33.36.67.71,1,1.07l.26.26a43,43,0,0,0,6.84,5.37c1.62,1,3.35,2,5.18,3s3.77,1.8,5.78,2.62a93.94,93.94,0,0,0,13,4.12c2.29.57,4.64,1,7,1.46l.35.06.68,2.35,1.44-.45,1.44-.45-5.11-17.59a89.74,89.74,0,0,1,46.72,0l-5.11,17.59,1.44.45,1.44.45.68-2.35.35-.06c2.38-.42,4.73-.9,7-1.46A94,94,0,0,0,383,113c2-.82,4-1.69,5.78-2.62s3.57-1.92,5.18-3a43.08,43.08,0,0,0,6.84-5.37l.26-.26c.35-.35.7-.71,1-1.07a23,23,0,0,0,4.48-6.89,15.11,15.11,0,0,0,1.13-5.15,11.4,11.4,0,0,0,0-1.38l0-.47-.06.46c0,.31-.11.76-.24,1.33a15.48,15.48,0,0,1-.62,2.05,16.51,16.51,0,0,1-1.26,2.56,20,20,0,0,1-2.07,2.82A27.09,27.09,0,0,1,401,98.39v-9.3c.35-.35.7-.71,1-1.07a23,23,0,0,0,4.48-6.89A15.11,15.11,0,0,0,407.68,76a11.4,11.4,0,0,0,0-1.38l0-.47-.06.46c0,.31-.11.76-.24,1.33A15.55,15.55,0,0,1,406.7,78a16.51,16.51,0,0,1-1.26,2.56,20.11,20.11,0,0,1-2.07,2.82A27.05,27.05,0,0,1,401,85.68V75.59c5.24-4.29,9.28-9.91,9.69-17.16,0-6.37-3.24-11.58-7.62-15.7V39.65c4.48-4,8.5,1.84,11.47-3.93C407.61,35.81,409.14,31.39,403.14,31.78Zm-36.67,1.48a95,95,0,0,1,17.28,5c5,2,11.09,4.91,15.4,9.14L375.46,62.64c-4.69-3.74-12.21-6.64-21.24-8.11Zm-17.79-2.17a136.75,136.75,0,0,1,14.09,1.51L350.44,54a87.07,87.07,0,0,0-19.29,0L318.83,32.59A136.79,136.79,0,0,1,348.67,31.09ZM286.76,44c8.42-5.75,18.5-8.82,28.36-10.72l12.24,21.28c-9,1.47-16.55,4.37-21.24,8.11L282.44,47.42A34.44,34.44,0,0,1,286.76,44Zm10.48,63.49a68.73,68.73,0,0,1-7.85-3.3,47.35,47.35,0,0,1-4.48-2.52l-.85-.56V92.17q1.68,1.31,3.59,2.54c1.62,1,3.35,2,5.18,3,1.41.72,2.89,1.4,4.41,2Zm0-12.71a68.75,68.75,0,0,1-7.85-3.3,47.33,47.33,0,0,1-4.48-2.52l-.85-.56V78c1.23.82,2.49,1.58,3.75,2.28a72.49,72.49,0,0,0,9.44,4.36Zm-3.1-18.15c-4.9-2.32-9.85-5.2-13.46-9.44-1.74-2-4.26-5.89-3.74-8.9a22.91,22.91,0,0,1,1.55-5.79A17.67,17.67,0,0,1,280,50.13l23.47,15.08a10,10,0,0,0-2.57,6.43c0,3.56,2.25,6.87,6.13,9.67A78.75,78.75,0,0,1,294.15,76.61Zm18.59,34.95a111.29,111.29,0,0,1-12-2.93v-7.51a95.33,95.33,0,0,0,10.85,3.3q1.72.42,3.47.78l2.06,7.1Q314.91,112,312.73,111.55Zm68.1-2.93a111.17,111.17,0,0,1-12,2.93q-2.17.4-4.41.75l2.06-7.1q1.75-.36,3.47-.78a95.38,95.38,0,0,0,10.85-3.3v7.51Zm0-12.71a111.29,111.29,0,0,1-12,2.93q-1.93.35-3.91.67a92.57,92.57,0,0,0-48.3,0q-2-.32-3.91-.67a111.16,111.16,0,0,1-12-2.93v-10a116.26,116.26,0,0,0,21.92,4.76,145.61,145.61,0,0,0,36.76,0A114.89,114.89,0,0,0,380.84,86Zm16.7,5.18-.85.56a47.42,47.42,0,0,1-4.48,2.52,69,69,0,0,1-7.85,3.3V99.72c1.52-.65,3-1.33,4.41-2,1.83-.94,3.57-1.92,5.18-3,1.27-.82,2.47-1.67,3.59-2.54v8.92Zm0-12.71-.85.56a47.42,47.42,0,0,1-4.48,2.52,68.8,68.8,0,0,1-7.85,3.3v-10A75.58,75.58,0,0,0,393,80.83c1.52-.81,3-1.69,4.49-2.66Zm7-30.14c-.05,5.53-4.84,10.75-9.53,14a65.5,65.5,0,0,1-20.29,9c3.8-2.78,6-6.06,6-9.58a10,10,0,0,0-2.57-6.43l23.39-15A15.37,15.37,0,0,1,404.52,58.24Z"/><g class="cls-3"><path d="M1641,113c8.63,0,15.62,7.62,15.62,17s-7,17-15.62,17-15.62-7.62-15.62-17S1632.35,113,1641,113Z"/><path d="M1694.18,208.13a7.29,7.29,0,0,0,2.71.53,7.89,7.89,0,0,0,7.35-5.58c5-14.74-3-36.09-3.9-38.47l-1.1-2.84-27.7-15.63a7.19,7.19,0,0,0-5.12-.76c-12.55-1.17-29.06,8.88-33.36,11.68l-1.06.7v0a7.64,7.64,0,0,0-1.94,2l-15,22.89-20,10.74a8.89,8.89,0,0,0-3.57,11.41,7.79,7.79,0,0,0,7,4.77,7.27,7.27,0,0,0,3.45-.88L1625.47,196l7.79-11.85,1.3,27.26.23.1A8.8,8.8,0,0,0,1635,213l2.52,10.58-15.06,18.58-37.59,49.47a9.06,9.06,0,0,0,1,12,7.41,7.41,0,0,0,5,2,7.57,7.57,0,0,0,6-3.09l37.35-49.16,8-9.85.79,3.33,4.37,1.31c12.11,3.63,26.73,8.87,30.78,11.38a7.66,7.66,0,0,0,6.39,3.61l.54,0c4.32-.32,7.57-4.39,7.27-9.1-.45-7.12-6.42-10.5-23-16.45-5.05-1.81-10-3.44-13.45-4.52l-1.18-5,5.22-6.45c5-3.46,14.18-32.74,15.91-53.82l11,6.2c2.11,6.52,4.6,17.48,2.67,23.18C1688,201.6,1690.13,206.5,1694.18,208.13Z"/><path d="M1563.09,265.07c9.08,0,16.44,8,16.44,17.91s-7.36,17.91-16.44,17.91-16.44-8-16.44-17.91S1554,265.07,1563.09,265.07Z"/></g><g class="cls-3"><path d="M1402,140.16l113.4-39.79-.07-17.3a1.33,1.33,0,0,0-1.6-1.35l-20.43,3.48a2.52,2.52,0,0,1-2.42-1.13L1480.43,66.2a1.34,1.34,0,0,0-2.07-.37l-16,13.17a2.51,2.51,0,0,1-2.65.22l-17.92-10.39a1.35,1.35,0,0,0-2,.7l-7.5,19.31a2.51,2.51,0,0,1-2.21,1.49L1409.36,90a1.34,1.34,0,0,0-1.39,1.58l3,20.5a2.52,2.52,0,0,1-1.18,2.39l-18.13,10a1.33,1.33,0,0,0-.41,2.06Z"/><path d="M1417.07,197l20.43-3.48a2.52,2.52,0,0,1,2.42,1.13l10.46,17.88a1.34,1.34,0,0,0,2.07.37l16-13.17a2.51,2.51,0,0,1,2.66-.22L1489,209.87a1.35,1.35,0,0,0,2-.7l7.5-19.31a2.51,2.51,0,0,1,2.21-1.49l20.72.28a1.34,1.34,0,0,0,1.39-1.58l-3-20.5a2.52,2.52,0,0,1,1.18-2.39l18.13-10a1.33,1.33,0,0,0,.41-2.06l-10.76-13.55-113.4,39.79.07,17.3A1.33,1.33,0,0,0,1417.07,197Z"/><path d="M1423.59,144.91a6,6,0,0,1,3.78-.2,5.29,5.29,0,0,1,2.83,2.08l4.41-2.54a8.81,8.81,0,0,0-5-4,11.93,11.93,0,0,0-7.5.56,12.92,12.92,0,0,0-5.23,3.15,11,11,0,0,0-3,6,14.37,14.37,0,0,0,.75,7.08,15.19,15.19,0,0,0,3.58,5.79,10.45,10.45,0,0,0,5.69,3,13.66,13.66,0,0,0,7-.71,16.71,16.71,0,0,0,5.36-3.12,13.68,13.68,0,0,0,3.44-4.07l-3.29-9.38-10.25,3.6,1.39,4,5.45-1.91,1,3a10.87,10.87,0,0,1-2.08,2.33,8.67,8.67,0,0,1-2.79,1.64,6.6,6.6,0,0,1-5.62-.38q-2.6-1.44-4.07-5.64-1.36-3.89-.22-6.51A6.83,6.83,0,0,1,1423.59,144.91Z"/><path d="M1473.61,143.69l9.42-3.3L1487,145l5.17-1.82L1474.43,123l-5,1.76-.91,26.78,5-1.77Zm.18-14.34,6.31,7.6-6.43,2.26Z"/><polygon points="1486.59 118.91 1494.78 142.27 1511.37 136.45 1509.98 132.48 1498.15 136.63 1491.34 117.24 1486.59 118.91"/><polygon points="1511.94 109.79 1507.06 111.51 1508.99 117.03 1514.36 128.58 1516.92 127.68 1513.88 115.32 1511.94 109.79"/><rect x="1514.59" y="129.55" width="4.79" height="4.79" transform="translate(41.87 509.68) rotate(-19.33)"/><path d="M1447.93,131.34a13.38,13.38,0,1,0,17.06,8.2A13.4,13.4,0,0,0,1447.93,131.34ZM1462.29,146l-3.51,1.85a.56.56,0,0,0-.27.41l-.26,4a10.09,10.09,0,0,1-5.34,1.88l-2.68-2.94a.56.56,0,0,0-.47-.16l-3.9.75a10.06,10.06,0,0,1-2.86-3.87l1.87-3.51a.56.56,0,0,0,0-.49l-2-3.42a10.18,10.18,0,0,1,2.88-4.16l3.91.68a.56.56,0,0,0,.46-.16l2.63-3a10.18,10.18,0,0,1,4.85,1.45l.57,3.93a.56.56,0,0,0,.3.39l3.65,1.57A10.06,10.06,0,0,1,1462.29,146Z"/><path d="M1455.89,141.05l-4.82-1.44a.41.41,0,0,0-.43.15l-2.86,4.14a.41.41,0,0,0,0,.46l3.05,4a.41.41,0,0,0,.44.13l4.75-1.67a.41.41,0,0,0,.26-.37l-.12-5A.41.41,0,0,0,1455.89,141.05Z"/></g><g class="cls-4"><path class="cls-5" d="M1933.71,158.77l-41-41a29.26,29.26,0,0,1,41,41ZM1833,176.9l-17.82,17.82,41.59,41.59,17.82-17.83Zm154.46-71.29,17.82-17.82-41.59-41.58L1945.9,64Zm-190.1,71.28,11.88,11.89L1833,165l53.47,53.46-23.76,23.76,11.88,11.87a25.2,25.2,0,0,0,35.64,0l53.45-53.45-30-30a37.59,37.59,0,0,1-52.86-52.86l-30-30-53.46,53.45A25.19,25.19,0,0,0,1797.39,176.9ZM1889.46,162a29.38,29.38,0,0,0,38.32,2.66l-41-41A29.37,29.37,0,0,0,1889.46,162Zm20.79-133.66L1856.8,81.86l30,30a37.59,37.59,0,0,1,52.87,52.87l30,30,53.46-53.46a25.2,25.2,0,0,0,0-35.64l-11.88-11.88-23.76,23.76L1934,64l23.76-23.76L1945.9,28.39A25.19,25.19,0,0,0,1910.25,28.39Z"/></g><g class="cls-4"><path d="M1693.36,44.78c-1.43-1.69-2.67-3.1-3.58-4.09-4.25-4.63-7.31-5.62-11.76-4.31-.05,0-3.91,1.24-10.69,3.26a51.39,51.39,0,0,0,16.46,3A21.72,21.72,0,0,1,1693.36,44.78Z"/><path d="M1612.46,57.09a2.63,2.63,0,0,0,1.72,2l7.39,3.08-.1,3.71a2.18,2.18,0,0,0,1.48,1.72l5.95,2.32a2.18,2.18,0,0,0,2.25-.26l2.24-2.57,6.63,2.75-.1,3.51a2.18,2.18,0,0,0,1.48,1.72l5.95,2.32a2.18,2.18,0,0,0,2.25-.26l2.14-2.45,6,2.48-.09,3.24a2.18,2.18,0,0,0,1.48,1.72l5.95,2.32a2.18,2.18,0,0,0,2.25-.26l1.9-2.19c10.61,4.5,21.21,9,31.9,13.35l-.1,3.49a2.18,2.18,0,0,0,1.48,1.72l5.95,2.32a2.18,2.18,0,0,0,2.25-.26L1713,100q3.19,1.22,6.4,2.41l-.09,3.4a2.18,2.18,0,0,0,1.48,1.72l5.95,2.32a2.18,2.18,0,0,0,2.25-.26l2.51-2.88q2.88,1,5.78,1.9l-.11,4.17a2.18,2.18,0,0,0,1.48,1.72l5.95,2.32a2.18,2.18,0,0,0,2.25-.26l3.59-4.12q3.88,1,7.77,1.87t7.8,1.51a2.09,2.09,0,0,0,2.27-.88l2-5a5.59,5.59,0,0,0-.11-3.41c-.8-2.45-3.62-4.6-6.17-6.4-3.86-2.72-8.06-5.17-12.2-7.61-1.77-1-3.52-2.09-5.26-3.17q-3.91-2.42-7.79-4.87c-5.21-3.26-10.34-6.59-15.27-10.09.94-.78.72-2.44-1.35-3.25a2.54,2.54,0,0,0-2.78.24q-2.41-1.81-4.75-3.68c1.24-.67,1.17-2.56-1.08-3.44a2.53,2.53,0,0,0-2.8.26c-1.65-1.37-3.31-2.79-4.91-4.23,1.48-.55,1.54-2.61-.85-3.54a2.62,2.62,0,0,0-2.69.16,47.73,47.73,0,0,1-3.81-4.34,30.09,30.09,0,0,0-2.48-3.08c-2.84-2.86-7.87-4.06-11.74-4.09-5.91-.06-18.44-2.23-27.54-8.1a32.87,32.87,0,0,1-9.45-8.78,19.55,19.55,0,0,1-2.37-5.06,6,6,0,0,0-3.1-4.11c-4-2-9.38.46-12.38,1.41-6.39,2-11.43,5.7-14,10.58-2.42,4.64-2.47,10.44-2.69,15.77C1612.53,50.47,1612.53,53.78,1612.46,57.09Zm13.61-29.6c11.92,12.37,32.05,24.92,56.85,38.43,25,13.65,32.63,27.76,34.06,30.85q-3-1.21-6-2.45-5.9-2.45-11.76-5c-9.65-4.18-19.24-8.5-28.85-12.76l-2.17-1c-1.83-7.47-8.65-14.31-16-20.33s-16.9-11.72-22-19a28.15,28.15,0,0,1-3.55-6.82C1626.51,29.22,1625.76,27.65,1626.06,27.49Z"/></g><g class="cls-4"><path d="M279.25,160.49h-.87a71.75,71.75,0,1,0,0,143.51h.87a71.76,71.76,0,0,0,0-143.51ZM263.68,297.37l6.13-2.54-10-28a2.37,2.37,0,0,0,1.89-1.29l1.07-2.14a2.39,2.39,0,0,0-4.28-2.14l-1.07,2.14a2.36,2.36,0,0,0,.16,2.33h-31l.33,8.15a66.62,66.62,0,0,1-14.51-38.73l24-14.59,1.06.46a2.39,2.39,0,1,0,1.89-4.39l-1-.42-4-27.31-6.83.89a67.27,67.27,0,0,1,27.74-20.05l-3.31,4.76,24.95,16v1.08a2.39,2.39,0,0,0,4.78,0v-1.21L304,173.24l-2.74-3.92A67.25,67.25,0,0,1,330,189.67l-5.86-.77-4,27.31-1,.42a2.39,2.39,0,0,0,.94,4.59,2.36,2.36,0,0,0,.94-.2l1.06-.46,23.18,14.08a66.58,66.58,0,0,1-13.61,38.08l.29-7H303.32a2.36,2.36,0,0,0,.16-2.33l-1.07-2.14a2.39,2.39,0,0,0-4.28,2.14l1.07,2.14a2.38,2.38,0,0,0,1.93,1.29l-12.62,27.92,6,2.49a63.59,63.59,0,0,1-30.83.13Z"/><path d="M294.92,257a2.39,2.39,0,1,0,4.28-2.14l-.63-1.25,9.81-29.42-28.52-20.74a2.36,2.36,0,0,0,1.78-2.27v-2.39a2.39,2.39,0,1,0-4.78,0v2.39a2.36,2.36,0,0,0,1.78,2.27L250,224.21l11.7,30.5-.06.12A2.39,2.39,0,1,0,266,257l.41-.82h28.14Z"/><path d="M248.13,220.4l-2.2-.94a2.39,2.39,0,0,0-1.89,4.4l2.2.94a2.39,2.39,0,1,0,1.89-4.4Z"/><path d="M311.31,225a2.36,2.36,0,0,0,.94-.2l2.2-.94a2.39,2.39,0,0,0-1.89-4.4l-2.2.94a2.39,2.39,0,0,0,.94,4.59Z"/></g><g class="cls-4"><path d="M26.12,180.55c17.33-6.38,28-19.44,37-34.11L31.86,77.63A12.25,12.25,0,0,1,52.49,64.8c13.21-1.13,24.38-7.47,35.19-15.62L61.05,22.55a5.15,5.15,0,0,0-4.78-1c-47.2,15.84-46,80.14-92,97.1l-1.7-1.7a4.23,4.23,0,0,0-6,0,4.23,4.23,0,0,0,0,6L100.76,267.16a4.23,4.23,0,1,0,6-6Z"/><path d="M172.28,17.05a5.15,5.15,0,0,0-4.13-2.62c-.71,0-1.41,0-2.11,0-30.35,0-50.12,23.29-72.65,40.5C80.19,65,66,73,48.24,73h-.39l-1-2.19a4.23,4.23,0,1,0-7.7,3.5L68.09,138l55.42,122a4.23,4.23,0,0,0,7.7-3.5L84.06,152.7h.39c48.14,0,69.66-58.6,117.8-58.6.7,0,1.4,0,2.11,0h.14c1.56,0,2.37-.95,1.78-2.26Z"/></g><g class="cls-3"><path d="M552.19,154.07a6.91,6.91,0,0,0-3.41-4.08l-18.61-9.74,8.39-16a7,7,0,0,0-2.94-9.38L484,87.8a7,7,0,0,0-9.38,2.94l-43.36,82.88a7,7,0,0,0,2.94,9.38l18.61,9.74-8.39,16a7,7,0,0,0,2.94,9.38C503.62,247.62,499.81,246,502.19,246a7,7,0,0,0,6.17-3.73l43.36-82.88A6.91,6.91,0,0,0,552.19,154.07Zm-4.61,3.14c-46.29,88.48-43.37,83.59-44.7,84s2.39,2-53.41-27.19a2.29,2.29,0,0,1-1-3.09l8.39-16c31.83,16.65,30.09,16.24,33,15.87a6.91,6.91,0,0,0,5.31-3.67l25.64-49a2.33,2.33,0,1,0-4.13-2.16l-25.64,49a2.28,2.28,0,0,1-3.09,1c-55.8-29.2-52.39-27.09-52.79-28.38s-2.78,3.87,43.52-84.62a2.29,2.29,0,0,1,3.09-1l51.67,27a2.29,2.29,0,0,1,1,3.09l-14.25,27.24a2.33,2.33,0,1,0,4.13,2.16l3.69-7.06,18.61,9.74a2.29,2.29,0,0,1,1,3.08Z"/></g></g></svg>