<?xml version="1.0" standalone="no"?>
<!DOCTYPE svg PUBLIC "-//W3C//DTD SVG 20010904//EN">
<svg version="1.0" xmlns="http://www.w3.org/2000/svg"
 width="256.000000pt" height="256.000000pt" viewBox="0 0 256.000000 256.000000"
 preserveAspectRatio="xMidYMid meet">
<metadata>
Created by potrace 1.11, written by Peter Selinger 2001-2013
</metadata>
<g transform="translate(0.000000,256.000000) scale(0.100000,-0.100000)"
fill="#000000" stroke="none">
<path d="M2309 2312 c-135 -136 -252 -253 -260 -259 -13 -10 -25 -4 -70 38
-142 133 -347 239 -509 264 -25 4 -54 9 -65 11 -11 3 -70 4 -130 4 -268 1
-514 -99 -713 -288 -354 -337 -447 -878 -226 -1315 24 -47 72 -125 84 -137 3
-3 21 -25 40 -50 19 -25 38 -46 42 -48 4 -2 8 -7 8 -12 0 -4 -115 -123 -256
-264 l-256 -256 1281 0 1281 0 0 1280 c0 704 -1 1280 -2 1280 -2 -1 -114 -112
-249 -248z m-1081 -241 c92 -74 85 -55 62 -191 -5 -30 -12 -73 -15 -95 -15
-111 13 -86 -247 -222 l-68 -35 -137 70 -138 70 -3 120 -3 120 53 45 c58 49
141 103 203 132 56 26 188 64 200 57 6 -3 47 -35 93 -71z m495 -45 c59 -39
157 -125 157 -137 0 -4 -80 -87 -177 -184 l-177 -177 -64 66 -64 66 7 57 c3
32 10 78 15 103 5 25 11 65 15 90 3 25 8 52 11 60 4 13 179 87 212 89 8 1 37
-14 65 -33z m-963 -556 c113 -58 140 -75 142 -93 0 -12 2 -26 3 -32 1 -5 4
-28 8 -50 4 -22 10 -58 13 -80 3 -22 9 -64 14 -94 11 -60 13 -54 -60 -132 -19
-20 -61 -64 -93 -98 -66 -70 -56 -69 -192 -29 -78 23 -80 24 -103 71 -20 43
-41 111 -57 192 -9 40 -13 200 -7 248 3 30 12 43 41 62 20 14 61 43 91 64 30
22 56 40 57 41 1 0 65 -32 143 -70z"/>
</g>
</svg>
